<svg width="11" height="17" viewBox="0 0 11 17" fill="none" xmlns="http://www.w3.org/2000/svg">
<path d="M7.90216 9.3897C7.90063 9.56056 7.84872 9.72709 7.75307 9.868C7.65742 10.0089 7.52238 10.1178 7.36518 10.1808C7.20798 10.2438 7.03577 10.2579 6.87055 10.2215C6.70534 10.1851 6.55461 10.0998 6.43763 9.9764C6.32065 9.85301 6.24273 9.69718 6.21382 9.52883C6.18491 9.36047 6.20633 9.18723 6.27534 9.03124C6.34435 8.87524 6.45781 8.74358 6.60124 8.65306C6.74466 8.56255 6.91154 8.51729 7.08054 8.52308C7.30231 8.53067 7.51236 8.62554 7.66587 8.78745C7.81937 8.94937 7.90417 9.16549 7.90216 9.3897ZM10.785 9.54263C10.9723 9.97184 11.0391 10.4448 10.978 10.9098C10.917 11.3748 10.7306 11.8139 10.4391 12.1789L7.29676 16.0678C7.06195 16.3602 6.76526 16.5958 6.42851 16.7571C6.09175 16.9184 5.7235 17.0014 5.35082 17C4.74614 16.9959 4.1611 16.7826 3.69317 16.3955L0.954447 14.1379C0.53809 13.7966 0.237324 13.3326 0.0939523 12.8105C-0.0494192 12.2885 -0.0282735 11.7343 0.154451 11.2249L2.23012 3.94234C2.24689 3.88299 2.28235 3.83078 2.33112 3.79361C2.37988 3.75644 2.4393 3.73633 2.50039 3.73633C2.56147 3.73633 2.62089 3.75644 2.66966 3.79361C2.71842 3.83078 2.75388 3.88299 2.77065 3.94234L3.1238 5.33331C3.14058 5.39266 3.17604 5.44487 3.2248 5.48204C3.27357 5.51921 3.33299 5.53932 3.39407 5.53932C3.45516 5.53932 3.51458 5.51921 3.56335 5.48204C3.61211 5.44487 3.64756 5.39266 3.66434 5.33331L4.99767 0.213669C5.01175 0.152881 5.04576 0.0986898 5.09417 0.0598998C5.14258 0.0211098 5.20255 0 5.26433 0C5.32612 0 5.38609 0.0211098 5.4345 0.0598998C5.48291 0.0986898 5.51692 0.152881 5.531 0.213669L6.71298 4.69245C6.72975 4.7518 6.76521 4.80401 6.81397 4.84118C6.86274 4.87835 6.92216 4.89845 6.98325 4.89845C7.04433 4.89845 7.10375 4.87835 7.15252 4.84118C7.20128 4.80401 7.23674 4.7518 7.25351 4.69245L7.90216 2.36203C7.91894 2.30268 7.95439 2.25047 8.00316 2.21329C8.05192 2.17612 8.11134 2.15602 8.17243 2.15602C8.23351 2.15602 8.29293 2.17612 8.3417 2.21329C8.39046 2.25047 8.42592 2.30268 8.4427 2.36203L10.785 9.54263ZM9.34359 10.1762L8.52197 8.33373C8.45799 8.18087 8.35948 8.04527 8.23433 7.93778C8.10918 7.83029 7.96087 7.75389 7.80126 7.71471L5.8337 7.28504C5.76898 7.27884 5.70383 7.27884 5.63911 7.28504C5.50081 7.28547 5.36435 7.31708 5.23967 7.37755C5.11499 7.43802 5.00523 7.52584 4.91839 7.6346L1.74723 11.5089C1.58923 11.7204 1.5196 11.9861 1.55328 12.2489C1.58697 12.5117 1.7213 12.7506 1.92741 12.9145L4.67335 15.1721C4.86048 15.3268 5.09463 15.4116 5.33641 15.4124C5.47453 15.4109 5.61066 15.3789 5.73519 15.3185C5.85972 15.2581 5.96961 15.1708 6.05712 15.0628L9.24269 11.1812C9.34372 11.0405 9.40511 10.8748 9.42034 10.7017C9.43557 10.5286 9.40407 10.3545 9.32918 10.1981L9.34359 10.1762Z" fill="url(#paint0_linear)"/>
<defs>
<linearGradient id="paint0_linear" x1="-0.0185208" y1="8.50123" x2="10.9868" y2="8.50123" gradientUnits="userSpaceOnUse">
<stop stop-color="#6A6A6A"/>
<stop offset="1" stop-color="#6A6A6A"/>
</linearGradient>
</defs>
</svg>
